# xmcd
#
# Track frame offsets:
#	150
#	32878
#	51976
#
# Disc length: 1177 seconds
#
# Revision: 1
# Processed by: cddbd v1.5.2PL0 Copyright (c) Steve Scherf et al.
# Submitted via: audiograbber 1.83.01
#
DISCID=23049703
DTITLE=Luna System - The Light
DYEAR=2001
DGENRE=Dance
TTITLE0=Original Club Mix
TTITLE1=Radio Cut
TTITLE2=DJ Janis Plus One Remix
EXTD=
EXTT0=
EXTT1=
EXTT2=
PLAYORDER=
